<svg width="71" height="71" viewBox="0 0 71 71" fill="none" xmlns="http://www.w3.org/2000/svg">
<path d="M32.577 24.0856V43.2737M32.577 24.0856L48.8558 13.6262V54.0477L32.577 43.2737M32.577 24.0856H12.0518C1.98568 24.0856 0.727434 43.2737 12.0518 43.2737C12.5125 43.2737 13.2314 43.2737 13.2314 43.2737M32.577 43.2737H20.5325M13.2314 43.2737L17.7139 55.3847C19.7586 59.71 25.5781 56.3284 24.5369 53.9316L20.5325 43.2737M13.2314 43.2737H20.5325M54.9806 29.6043C54.9806 29.6043 56.4338 31.7656 56.4338 33.4458C56.4338 35.1261 54.9806 37.2874 54.9806 37.2874M58.8222 26.1896C58.8222 26.1896 61.7314 30.3886 61.7619 33.446C61.7931 36.5806 58.8222 40.9155 58.8222 40.9155M62.6971 23.0413C62.6971 23.0413 66.7862 29.0718 66.8478 33.446C66.9134 38.1084 62.9393 44.3062 62.9393 44.3062" stroke="white" stroke-width="2.66406" stroke-linecap="round" stroke-linejoin="round"/>
</svg>
