<svg width="524" height="134" viewBox="0 0 524 134" fill="none" xmlns="http://www.w3.org/2000/svg">
<path d="M-548.797 133.453V98.0816H-538.771V92.2328H-520.669V100.31H-515.935V94.4609H-508.137V104.209H-488.921V110.336H-466.084V89.1691H-452.995V84.1558H-439.349V78.8641H-428.209V83.0418H-412.614V86.1055H-401.474V91.3973H-398.132V82.7633H-373.624V89.4476H-344.94V21.732H-330.179V19.5039H-326.281V27.3023H-318.204V19.5039H-315.419V16.4402H-308.178V19.2254H-299.824V33.7082H-294.532V78.5855H-287.848V69.673H-283.671V64.3812H-259.721V65.459H-255.265V58.2176H-237.163V64.6234H-232.428V68.5226H-225.466V92.7898H-219.896V101.145H-216.554V64.3449H-209.87V59.0531H-179.793V63.5094H-172.274V56.825H-169.489V44.5703H-146.374V53.2043H-143.589V58.2176H-137.74V47.634H-135.234V28.4164H-118.524V0.0078125H-81.7632V59.0531H-75.6363V51.5332H-72.8514V44.2918H-64.775V33.7082H-58.6482V23.4031H-54.7493V18.9469H-49.4579V13.6551H-41.3816V18.6684H-35.2547V22.2891H-29.6849V32.8727H-24.3935V50.4191H4.29138V52.6473H10.1398V47.0769H14.0386V41.7852H36.5966V47.0769H40.774V81.0922H44.116V71.9012H61.3826V50.6977H68.3449V44.5703H93.1309V50.1406H99.2576V101.981H104.271V57.1398H112.347V47.9125H116.524V43.7348H119.866V38.1644H136.854V41.7852H144.374V36.2148H155.513V44.5703H160.526V47.3555H166.375V58.2539H170.552V106.159H178.907V101.145H186.705V78.307H192.275V50.4191H204.25V40.1141H209.263V50.4191H229.036V78.0285H239.061V86.6625H242.403V97.5246H251.594V94.4609H254.657V85.8269H257.164V78.307H274.43V87.498H279.164V91.9543H287.519V100.031H290.304V114.793H296.431V73.5723H346.838V107.551H353.801V113.679H362.991V102.538H365.776V97.8031H373.017V93.9039H382.486V114.236H390.005V112.007H397.246V87.7766H402.816V84.1558H411.449V86.941H416.183V115.907H420.639V87.7766H425.095V84.1558H434.007V87.2195H440.412V117.021H456.286V113.121H460.742V108.944H474.667V112.564H478.566V116.742H487.478V112.843H491.655V105.602H496.39V109.779H504.466V117.856H510.314V114.793H523.125V132.896L-548.797 133.453Z" fill="#093D5A"/>
</svg>
