<svg width="524" height="151" viewBox="0 0 524 151" fill="none" xmlns="http://www.w3.org/2000/svg">
<path d="M-548.24 150.711V115.339H-538.217V109.491H-520.119V117.568H-515.386V111.719H-507.59V121.467H-488.378V127.594H-465.547V106.427H-452.461V101.414H-438.818V96.1219H-427.681V100.3H-412.089V103.363H-400.952V108.655H-397.611V100.021H-373.11V106.705H-344.432V22.0367H-329.675V19.8086H-325.777V27.607H-317.703V19.8086H-314.918V16.7449H-307.679V19.5301H-299.326V34.0129H-294.036V95.8434H-287.354V86.9309H-283.178V81.6391H-259.233V65.7637H-254.778V58.5223H-236.68V64.9281H-231.947V68.8273H-224.986V110.048H-219.418V118.403H-216.077V64.6496H-209.395V59.3578H-179.324V63.8141H-171.807V57.1297H-169.023V44.875H-145.913V53.509H-143.129V58.5223H-137.282V47.9387H-134.776V28.7211H-118.07V0.3125H-81.318V59.3578H-75.1927V51.8379H-72.4084V44.5965H-64.334V34.0129H-58.2086V23.7078H-54.3106V19.2516H-49.0205V13.9598H-40.9461V18.973H-34.8207V22.5938H-29.2522V33.1773H-23.962V50.7238H4.71594V52.952H10.5629V47.3816H14.4609V42.0898H37.0135V47.3816H41.1899V98.35H44.531V89.159H61.7935V51.0023H68.7542V44.875H93.5342V50.4453H99.6595V119.239H104.671V74.3977H112.746V48.2172H116.922V44.0395H120.263V38.4691H137.247V42.0898H144.765V36.5195H155.902V44.875H160.914V47.6602H166.76V75.5117H170.937V123.416H179.29V118.403H187.086V95.5648H192.654V50.7238H204.627V40.4188H209.638V50.7238H229.407V95.2863H239.43V103.92H242.771V114.782H251.959V111.719H255.022V103.085H257.528V95.5648H274.79V104.756H279.523V109.212H287.876V117.289H290.661V132.05H296.786V90.8301H347.181V124.809H354.142V130.936H363.33V119.796H366.114V115.061H373.353V111.162H382.82V131.493H390.337V129.265H397.577V105.034H403.145V101.414H411.776V104.199H416.51V133.164H420.964V105.034H425.419V101.414H434.329V104.477H440.733V134.279H456.603V130.379H461.058V126.202H474.979V129.822H478.877V134H487.787V130.101H491.963V122.859H496.697V127.037H504.771V135.114H510.618V132.05H523.426V150.154L-548.24 150.711Z" fill="#0082CA"/>
</svg>
