<svg width="524" height="134" viewBox="0 0 524 134" fill="none" xmlns="http://www.w3.org/2000/svg">
<path d="M-548.797 133.578V98.2066H-538.771V92.3578H-520.669V100.435H-515.935V94.5859H-508.137V104.334H-488.921V110.461H-466.084V89.2941H-452.995V84.2808H-439.349V78.9891H-428.209V83.1668H-412.614V86.2305H-401.474V91.5223H-398.132V82.8883H-373.624V89.5726H-344.94V21.857H-330.179V19.6289H-326.281V27.4273H-318.204V19.6289H-315.419V16.5652H-308.178V19.3504H-299.824V33.8332H-294.532V78.7105H-287.848V69.798H-283.671V64.5062H-259.721V65.584H-255.265V58.3426H-237.163V64.7484H-232.428V68.6476H-225.466V92.9148H-219.896V101.27H-216.554V64.4699H-209.87V59.1781H-179.793V63.6344H-172.274V56.95H-169.489V44.6953H-146.374V53.3293H-143.589V58.3426H-137.74V47.759H-135.234V28.5414H-118.524V0.132812H-81.7632V59.1781H-75.6363V51.6582H-72.8514V44.4168H-64.775V33.8332H-58.6482V23.5281H-54.7493V19.0719H-49.4579V13.7801H-41.3816V18.7934H-35.2547V22.4141H-29.6849V32.9977H-24.3935V50.5441H4.29138V52.7723H10.1398V47.2019H14.0386V41.9102H36.5966V47.2019H40.774V81.2172H44.116V72.0262H61.3826V50.8227H68.3449V44.6953H93.1309V50.2656H99.2576V102.106H104.271V57.2648H112.347V48.0375H116.524V43.8598H119.866V38.2894H136.854V41.9102H144.374V36.3398H155.513V44.6953H160.526V47.4805H166.375V58.3789H170.552V106.284H178.907V101.27H186.705V78.432H192.275V50.5441H204.25V40.2391H209.263V50.5441H229.036V78.1535H239.061V86.7875H242.403V97.6496H251.594V94.5859H254.657V85.9519H257.164V78.432H274.43V87.623H279.164V92.0793H287.519V100.156H290.304V114.918H296.431V73.6973H346.838V107.676H353.801V113.804H362.991V102.663H365.776V97.9281H373.017V94.0289H382.486V114.361H390.005V112.132H397.246V87.9016H402.816V84.2808H411.449V87.066H416.183V116.032H420.639V87.9016H425.095V84.2808H434.007V87.3445H440.412V117.146H456.286V113.246H460.742V109.069H474.667V112.689H478.566V116.867H487.478V112.968H491.655V105.727H496.39V109.904H504.466V117.981H510.314V114.918H523.125V133.021L-548.797 133.578Z" fill="#6EC4E9"/>
</svg>
