<svg width="71" height="71" viewBox="0 0 71 71" fill="none" xmlns="http://www.w3.org/2000/svg">
<path d="M35.4336 18.9589C26.4787 18.9589 19.1933 26.2443 19.1933 35.1992C19.1933 44.1542 26.4787 51.4395 35.4336 51.4395C44.3885 51.4395 51.6739 44.1542 51.6739 35.1992C51.6739 26.2443 44.3885 18.9589 35.4336 18.9589ZM35.4336 47.9344C28.4114 47.9344 22.6984 42.2214 22.6984 35.1992C22.6984 28.177 28.4114 22.464 35.4336 22.464C42.4558 22.464 48.1688 28.177 48.1688 35.1992C48.1688 42.2214 42.4558 47.9344 35.4336 47.9344Z" fill="white"/>
<path d="M35.4336 14.8279C36.4015 14.8279 37.1861 14.0433 37.1861 13.0754V7.04161C37.1861 6.07374 36.4015 5.28906 35.4336 5.28906C34.4657 5.28906 33.681 6.07374 33.681 7.04161V13.0754C33.681 14.0433 34.4657 14.8279 35.4336 14.8279Z" fill="white"/>
<path d="M63.5911 33.4467H57.5574C56.5895 33.4467 55.8048 34.2313 55.8048 35.1992C55.8048 36.1671 56.5895 36.9518 57.5574 36.9518H63.5911C64.559 36.9518 65.3437 36.1671 65.3437 35.1992C65.3437 34.2313 64.559 33.4467 63.5911 33.4467Z" fill="white"/>
<path d="M35.4336 55.5705C34.4657 55.5705 33.681 56.3552 33.681 57.323V63.3568C33.681 64.3247 34.4657 65.1094 35.4336 65.1094C36.4015 65.1094 37.1861 64.3247 37.1861 63.3568V57.323C37.1861 56.3552 36.4015 55.5705 35.4336 55.5705Z" fill="white"/>
<path d="M15.0623 35.1992C15.0623 34.2313 14.2776 33.4467 13.3098 33.4467H7.27599C6.30811 33.4467 5.52344 34.2313 5.52344 35.1992C5.52344 36.1671 6.30811 36.9518 7.27599 36.9518H13.3098C14.2776 36.9518 15.0623 36.1671 15.0623 35.1992Z" fill="white"/>
<path d="M51.0775 21.3078C51.5261 21.3078 51.9746 21.1368 52.3167 20.7945L56.5832 16.5279C57.2677 15.8435 57.2677 14.7339 56.5832 14.0495C55.8989 13.365 54.7892 13.365 54.1048 14.0495L49.8383 18.316C49.1538 19.0004 49.1538 20.11 49.8383 20.7945C50.1806 21.1368 50.6291 21.3078 51.0775 21.3078Z" fill="white"/>
<path d="M52.3167 49.604C51.6324 48.9197 50.5227 48.9197 49.8383 49.604C49.1538 50.2884 49.1538 51.398 49.8383 52.0824L54.1049 56.349C54.4471 56.6912 54.8956 56.8622 55.3441 56.8622C55.7925 56.8622 56.2411 56.6911 56.5832 56.3489C57.2677 55.6644 57.2677 54.5548 56.5832 53.8704L52.3167 49.604Z" fill="white"/>
<path d="M18.5503 49.6039L14.2838 53.8704C13.5994 54.5548 13.5994 55.6644 14.2838 56.3489C14.626 56.6911 15.0745 56.8622 15.523 56.8622C15.9714 56.8622 16.42 56.6912 16.7621 56.3489L21.0286 52.0823C21.7131 51.3979 21.7131 50.2883 21.0286 49.6039C20.3445 48.9194 19.2346 48.9194 18.5503 49.6039Z" fill="white"/>
<path d="M18.5504 20.7945C18.8926 21.1367 19.3412 21.3078 19.7896 21.3078C20.238 21.3078 20.6867 21.1368 21.0288 20.7945C21.7132 20.11 21.7132 19.0004 21.0288 18.316L16.7622 14.0495C16.0779 13.365 14.9682 13.365 14.2838 14.0495C13.5994 14.7339 13.5994 15.8435 14.2838 16.5279L18.5504 20.7945Z" fill="white"/>
<path d="M43.2514 16.3877C43.4714 16.4791 43.6991 16.5223 43.9233 16.5223C44.6102 16.5223 45.2622 16.1158 45.5423 15.4418L47.8578 9.8701C48.2292 8.9763 47.8058 7.95059 46.912 7.57917C46.0183 7.20786 44.9926 7.63104 44.621 8.52496L42.3056 14.0967C41.9343 14.9906 42.3577 16.0163 43.2514 16.3877Z" fill="white"/>
<path d="M62.1077 44.3868L56.536 42.0713C55.6421 41.6999 54.6165 42.1232 54.2451 43.0171C53.8737 43.9109 54.2971 44.9366 55.1909 45.308L60.7626 47.6235C60.9826 47.7149 61.2103 47.7581 61.4345 47.7581C62.1214 47.7581 62.7735 47.3516 63.0535 46.6776C63.425 45.7839 63.0015 44.7582 62.1077 44.3868Z" fill="white"/>
<path d="M27.6158 54.0107C26.7219 53.6394 25.6963 54.0626 25.3249 54.9565L23.0094 60.5282C22.638 61.422 23.0614 62.4477 23.9552 62.8191C24.1752 62.9105 24.4029 62.9537 24.6271 62.9537C25.314 62.9537 25.9661 62.5472 26.2461 61.8732L28.5616 56.3015C28.9329 55.4078 28.5095 54.3821 27.6158 54.0107Z" fill="white"/>
<path d="M8.75951 26.0117L14.3312 28.3271C14.5512 28.4185 14.7789 28.4617 15.0031 28.4617C15.69 28.4617 16.3421 28.0552 16.6221 27.3812C16.9936 26.4874 16.5702 25.4617 15.6764 25.0903L10.1046 22.7749C9.21085 22.4037 8.18514 22.8269 7.81372 23.7207C7.44229 24.6145 7.86571 25.6402 8.75951 26.0117Z" fill="white"/>
<path d="M54.2633 27.4255C54.5424 28.1014 55.1955 28.5097 55.8839 28.5097C56.1067 28.5097 56.3333 28.467 56.552 28.3767L62.1291 26.0742C63.0237 25.7048 63.4497 24.6802 63.0804 23.7855C62.7109 22.8907 61.686 22.465 60.7917 22.8343L55.2146 25.1368C54.3198 25.5062 53.894 26.5309 54.2633 27.4255Z" fill="white"/>
<path d="M45.4961 54.9801C45.1267 54.0854 44.1018 53.6597 43.2073 54.0289C42.3126 54.3983 41.8867 55.4229 42.2561 56.3177L44.5586 61.8949C44.8377 62.5708 45.4908 62.9791 46.1792 62.9791C46.402 62.9791 46.6286 62.9363 46.8473 62.846C47.742 62.4767 48.1679 61.4519 47.7986 60.5573L45.4961 54.9801Z" fill="white"/>
<path d="M16.6039 42.9729C16.2345 42.0783 15.2101 41.6522 14.3151 42.0218L8.73795 44.3243C7.84333 44.6936 7.41734 45.7182 7.78666 46.613C8.06579 47.2889 8.71879 47.6972 9.4073 47.6972C9.62999 47.6972 9.85666 47.6544 10.0754 47.5641L15.6526 45.2616C16.5473 44.8922 16.9732 43.8675 16.6039 42.9729Z" fill="white"/>
<path d="M25.3712 15.4183C25.6503 16.0942 26.3034 16.5026 26.9918 16.5026C27.2146 16.5026 27.4411 16.4598 27.6599 16.3695C28.5546 16.0002 28.9805 14.9755 28.6111 14.0808L26.3086 8.5036C25.9392 7.60887 24.9143 7.18311 24.0199 7.55243C23.1252 7.92175 22.6993 8.94653 23.0687 9.84115L25.3712 15.4183Z" fill="white"/>
</svg>
