<svg width="71" height="71" viewBox="0 0 71 71" fill="none" xmlns="http://www.w3.org/2000/svg">
<path d="M28.3286 56.7292C27.0004 55.6224 26.8664 53.6944 27.9732 52.3662L37.911 40.4409C36.2577 37.4622 36.5019 33.6499 38.8137 30.8757C41.1255 28.1015 44.8312 27.1739 48.0592 28.2629L44.2651 32.8159L45.1484 36.5456L48.9763 36.7419L52.7705 32.1889C54.4238 35.1676 54.1796 38.9798 51.8677 41.7541C49.5559 44.5283 45.8502 45.4559 42.6222 44.3669L32.6862 56.2901C31.5794 57.6183 29.6567 57.836 28.3286 56.7292Z" stroke="white" stroke-width="2.90625" stroke-linejoin="round"/>
<path d="M39.4436 15.0354C40.7718 16.1422 40.9058 18.0703 39.799 19.3984L29.8613 31.3237C31.5145 34.3025 31.2704 38.1147 28.9585 40.8889C26.6467 43.6631 22.941 44.5908 19.713 43.5018L23.5072 38.9487L22.6238 35.219L18.7959 35.0227L15.0017 39.5758C13.3485 36.5971 13.5926 32.7848 15.9045 30.0106C18.2163 27.2364 21.922 26.3087 25.15 27.3977L35.086 15.4745C36.1928 14.1464 38.1155 13.9286 39.4436 15.0354Z" stroke="white" stroke-width="2.90625" stroke-linejoin="round"/>
<path d="M64.4097 19.9704C64.7082 19.2254 65.5541 18.8635 66.299 19.162C67.044 19.4605 67.4059 20.3064 67.1074 21.0514L64.4097 19.9704ZM61.8835 30.1816L63.2324 30.7221C63.0803 31.1018 62.7753 31.3997 62.3921 31.5428C62.009 31.686 61.5834 31.6611 61.2196 31.4742L61.8835 30.1816ZM52.4837 26.9867C51.7699 26.62 51.4884 25.744 51.8551 25.0302C52.2218 24.3163 53.0978 24.0349 53.8117 24.4016L52.4837 26.9867ZM60.6185 26.791L59.3096 27.4222C59.2846 27.3703 59.2627 27.317 59.244 27.2626L60.6185 26.791ZM67.1074 21.0514L63.2324 30.7221L60.5347 29.6412L64.4097 19.9704L67.1074 21.0514ZM61.2196 31.4742L52.4837 26.9867L53.8117 24.4016L62.5475 28.8891L61.2196 31.4742ZM61.8835 30.1816C60.4988 30.622 60.4988 30.622 60.4988 30.6221C60.4988 30.6221 60.4988 30.6221 60.4988 30.6221C60.4988 30.6221 60.4988 30.6221 60.4988 30.622C60.4987 30.6219 60.4986 30.6216 60.4985 30.6212C60.4982 30.6204 60.4978 30.619 60.4972 30.6172C60.496 30.6134 60.4942 30.6076 60.4917 30.5998C60.4867 30.5842 60.4791 30.5607 60.4692 30.5301C60.4494 30.4689 60.4202 30.3794 60.3834 30.2681C60.3097 30.0453 60.2059 29.7367 60.0857 29.3943C59.8384 28.6899 59.5452 27.9107 59.3096 27.4222L61.9274 26.1598C62.2404 26.809 62.5798 27.725 62.8278 28.4316C62.9553 28.7946 63.0649 29.1204 63.1427 29.3555C63.1816 29.4732 63.2127 29.5686 63.2342 29.6351C63.2449 29.6683 63.2533 29.6943 63.2591 29.7123C63.2619 29.7213 63.2642 29.7282 63.2657 29.7331C63.2665 29.7355 63.2671 29.7374 63.2676 29.7388C63.2678 29.7395 63.2679 29.74 63.2681 29.7405C63.2681 29.7407 63.2682 29.7408 63.2682 29.741C63.2683 29.741 63.2683 29.7411 63.2683 29.7411C63.2683 29.7412 63.2683 29.7413 61.8835 30.1816ZM7.63366 35.873C7.63366 50.5194 19.5069 62.3926 34.1532 62.3926V65.2988C17.9018 65.2988 4.72741 52.1245 4.72741 35.873H7.63366ZM34.1532 9.35352C19.5069 9.35352 7.63366 21.2267 7.63366 35.873H4.72741C4.72741 19.6216 17.9018 6.44727 34.1532 6.44727V9.35352ZM59.244 27.2626C55.6684 16.8409 45.7833 9.35352 34.1532 9.35352V6.44727C47.0626 6.44727 58.0269 14.7595 61.993 26.3194L59.244 27.2626ZM34.1532 62.3926C46.3318 62.3926 56.5964 54.1821 59.7068 42.9917L62.5069 43.77C59.0561 56.1853 47.6708 65.2988 34.1532 65.2988V62.3926Z" fill="white"/>
</svg>
