<svg width="32" height="31" viewBox="0 0 32 31" fill="none" xmlns="http://www.w3.org/2000/svg">
<path d="M2.97489 7.83092C2.67646 7.08614 1.83077 6.7243 1.08599 7.02272C0.341207 7.32115 -0.020634 8.16684 0.277795 8.91163L2.97489 7.83092ZM3.45333 12.9309L2.10478 13.4712C2.25686 13.8507 2.56184 14.1486 2.94485 14.2917C3.32786 14.4348 3.75345 14.4099 4.11715 14.2231L3.45333 12.9309ZM8.23594 12.1073C8.94963 11.7407 9.23099 10.865 8.86437 10.1513C8.49776 9.43758 7.622 9.15621 6.90831 9.52283L8.23594 12.1073ZM4.04978 11.3322L5.35835 11.9633C5.38335 11.9114 5.40525 11.8581 5.42393 11.8037L4.04978 11.3322ZM0.277795 8.91163L2.10478 13.4712L4.80188 12.3905L2.97489 7.83092L0.277795 8.91163ZM4.11715 14.2231L8.23594 12.1073L6.90831 9.52283L2.78952 11.6386L4.11715 14.2231ZM3.45333 12.9309C4.8378 13.3711 4.83778 13.3712 4.83777 13.3712C4.83776 13.3712 4.83775 13.3712 4.83775 13.3713C4.83773 13.3713 4.83773 13.3713 4.83773 13.3713C4.83772 13.3713 4.83774 13.3713 4.83778 13.3712C4.83785 13.3709 4.83801 13.3704 4.83824 13.3697C4.83871 13.3683 4.83948 13.3658 4.84056 13.3625C4.84272 13.3557 4.84607 13.3453 4.85051 13.3316C4.85941 13.3041 4.87266 13.2635 4.88945 13.2127C4.92313 13.1108 4.97053 12.9699 5.0253 12.814C5.14171 12.4824 5.26776 12.1511 5.35835 11.9633L2.74121 10.7012C2.57314 11.0497 2.40097 11.5177 2.28382 11.8514C2.22181 12.028 2.1686 12.1862 2.13086 12.3003C2.11194 12.3575 2.09678 12.404 2.08619 12.4367C2.08089 12.4531 2.07674 12.466 2.07382 12.4751C2.07236 12.4797 2.07121 12.4833 2.07038 12.4859C2.06996 12.4872 2.06963 12.4882 2.06938 12.489C2.06925 12.4894 2.06915 12.4897 2.06906 12.49C2.06902 12.4901 2.06898 12.4902 2.06895 12.4903C2.06893 12.4904 2.06891 12.4905 2.06891 12.4905C2.06889 12.4905 2.06887 12.4906 3.45333 12.9309ZM28.2635 15.6142C28.2635 22.0957 23.0092 27.35 16.5277 27.35V30.2556C24.6139 30.2556 31.169 23.7004 31.169 15.6142H28.2635ZM16.5277 3.87844C23.0092 3.87844 28.2635 9.13274 28.2635 15.6142H31.169C31.169 7.52804 24.6139 0.972881 16.5277 0.972881V3.87844ZM5.42393 11.8037C7.00659 7.19074 11.3822 3.87844 16.5277 3.87844V0.972881C10.1032 0.972881 4.64873 5.10979 2.67563 10.8608L5.42393 11.8037ZM16.5277 27.35C11.1394 27.35 6.59579 23.7175 5.21925 18.765L2.41982 19.5431C4.13674 25.7202 9.80068 30.2556 16.5277 30.2556V27.35Z" fill="white"/>
</svg>
