<svg width="71" height="71" viewBox="0 0 71 71" fill="none" xmlns="http://www.w3.org/2000/svg">
<path d="M57.7314 14.2428H14.2313C11.5568 14.2428 9.38867 16.4109 9.38867 19.0854V52.9154C9.38867 55.5899 11.5568 57.758 14.2313 57.758H57.7314C60.4059 57.758 62.574 55.5899 62.574 52.9154V19.0854C62.574 16.4109 60.4059 14.2428 57.7314 14.2428Z" stroke="white" stroke-width="2.90556"/>
<path d="M57.7314 21.4953H14.2313C11.5568 21.4953 9.38867 23.6634 9.38867 26.3379V52.9155C9.38867 55.59 11.5568 57.7581 14.2313 57.7581H57.7314C60.4059 57.7581 62.574 55.5899 62.574 52.9155V26.3379C62.574 23.6634 60.4059 21.4953 57.7314 21.4953Z" stroke="white" stroke-width="2.90556"/>
<path d="M57.7314 28.5061H14.2313C11.5568 28.5061 9.38867 30.6742 9.38867 33.3487V52.6737C9.38867 55.3482 11.5568 57.5163 14.2313 57.5163H57.7314C60.4059 57.5163 62.574 55.3482 62.574 52.6737V33.3487C62.574 30.6742 60.4059 28.5061 57.7314 28.5061Z" stroke="white" stroke-width="2.90556"/>
<path d="M62.574 52.9444V41.7811C62.574 39.2561 60.5271 37.2092 58.0021 37.2092H50.8496C47.6544 37.2092 44.6856 38.8859 43.0277 41.6173C39.8133 46.9129 32.1228 46.9613 28.8741 41.6867L27.4555 39.3834C26.6232 38.0322 25.1497 37.2092 23.5627 37.2092H13.9606C11.4356 37.2092 9.38867 39.2561 9.38867 41.7811V52.9444C9.38867 55.4694 11.4356 57.5163 13.9606 57.5163H58.0021C60.5271 57.5163 62.574 55.4694 62.574 52.9444Z" stroke="white" stroke-width="2.90556"/>
</svg>
